<?xml version="1.0" encoding="UTF-8" standalone="no"?>
<!DOCTYPE svg PUBLIC "-//W3C//DTD SVG 1.1//EN"
 "http://www.w3.org/Graphics/SVG/1.1/DTD/svg11.dtd">
<!-- Generated by graphviz version 14.0.5 (20251129.0259)
 -->
<!-- Title: AST Pages: 1 -->
<svg width="244pt" height="221pt"
 viewBox="0.00 0.00 244.00 221.00" xmlns="http://www.w3.org/2000/svg" xmlns:xlink="http://www.w3.org/1999/xlink">
<g id="graph0" class="graph" transform="scale(1 1) rotate(0) translate(4 217)">
<title>AST</title>
<polygon fill="#f8f8f8" stroke="none" points="-4,4 -4,-217 240,-217 240,4 -4,4"/>
<!-- n0 -->
<g id="node1" class="node">
<title>n0</title>
<path fill="#ffe0b2" stroke="black" d="M137,-213C137,-213 107,-213 107,-213 101,-213 95,-207 95,-201 95,-201 95,-189 95,-189 95,-183 101,-177 107,-177 107,-177 137,-177 137,-177 143,-177 149,-183 149,-189 149,-189 149,-201 149,-201 149,-207 143,-213 137,-213"/>
<text xml:space="preserve" text-anchor="middle" x="122" y="-189.57" font-family="Arial" font-size="14.00">×</text>
</g>
<!-- n1 -->
<g id="node2" class="node">
<title>n1</title>
<path fill="#fff3e0" stroke="black" d="M102,-124.5C102,-124.5 72,-124.5 72,-124.5 66,-124.5 60,-118.5 60,-112.5 60,-112.5 60,-100.5 60,-100.5 60,-94.5 66,-88.5 72,-88.5 72,-88.5 102,-88.5 102,-88.5 108,-88.5 114,-94.5 114,-100.5 114,-100.5 114,-112.5 114,-112.5 114,-118.5 108,-124.5 102,-124.5"/>
<text xml:space="preserve" text-anchor="middle" x="87" y="-101.08" font-family="Arial" font-size="14.00">+</text>
</g>
<!-- n0&#45;&gt;n1 -->
<g id="edge5" class="edge">
<title>n0&#45;&gt;n1</title>
<path fill="none" stroke="black" d="M115.09,-176.91C109.94,-164.2 102.84,-146.66 97.07,-132.39"/>
<polygon fill="black" stroke="black" points="99.48,-131.82 94.59,-126.25 94.94,-133.66 99.48,-131.82"/>
<text xml:space="preserve" text-anchor="middle" x="111.76" y="-145.7" font-family="Times,serif" font-size="14.00">L</text>
</g>
<!-- n4 -->
<g id="node5" class="node">
<title>n4</title>
<path fill="#fff3e0" stroke="black" d="M174,-124.5C174,-124.5 144,-124.5 144,-124.5 138,-124.5 132,-118.5 132,-112.5 132,-112.5 132,-100.5 132,-100.5 132,-94.5 138,-88.5 144,-88.5 144,-88.5 174,-88.5 174,-88.5 180,-88.5 186,-94.5 186,-100.5 186,-100.5 186,-112.5 186,-112.5 186,-118.5 180,-124.5 174,-124.5"/>
<text xml:space="preserve" text-anchor="middle" x="159" y="-101.08" font-family="Arial" font-size="14.00">−</text>
</g>
<!-- n0&#45;&gt;n4 -->
<g id="edge6" class="edge">
<title>n0&#45;&gt;n4</title>
<path fill="none" stroke="black" d="M129.31,-176.91C134.75,-164.2 142.25,-146.66 148.35,-132.39"/>
<polygon fill="black" stroke="black" points="150.48,-133.64 150.98,-126.24 145.98,-131.71 150.48,-133.64"/>
<text xml:space="preserve" text-anchor="middle" x="148.31" y="-145.7" font-family="Times,serif" font-size="14.00">R</text>
</g>
<!-- n2 -->
<g id="node3" class="node">
<title>n2</title>
<ellipse fill="#c8e6c9" stroke="black" cx="27" cy="-18" rx="27" ry="18"/>
<text xml:space="preserve" text-anchor="middle" x="27" y="-12.57" font-family="Arial" font-size="14.00">x</text>
</g>
<!-- n1&#45;&gt;n2 -->
<g id="edge1" class="edge">
<title>n1&#45;&gt;n2</title>
<path fill="none" stroke="black" d="M75.15,-88.41C65.87,-75.04 52.89,-56.33 42.74,-41.7"/>
<polygon fill="black" stroke="black" points="44.89,-40.49 38.88,-36.13 40.86,-43.28 44.89,-40.49"/>
<text xml:space="preserve" text-anchor="middle" x="66.5" y="-57.2" font-family="Times,serif" font-size="14.00">L</text>
</g>
<!-- n3 -->
<g id="node4" class="node">
<title>n3</title>
<ellipse fill="#e3f2fd" stroke="black" cx="90" cy="-18" rx="18" ry="18"/>
<text xml:space="preserve" text-anchor="middle" x="90" y="-12.57" font-family="Arial" font-size="14.00">1</text>
</g>
<!-- n1&#45;&gt;n3 -->
<g id="edge2" class="edge">
<title>n1&#45;&gt;n3</title>
<path fill="none" stroke="black" d="M87.59,-88.41C88.03,-75.93 88.62,-58.8 89.11,-44.68"/>
<polygon fill="black" stroke="black" points="91.55,-44.94 89.35,-37.86 86.65,-44.77 91.55,-44.94"/>
<text xml:space="preserve" text-anchor="middle" x="93.27" y="-57.2" font-family="Times,serif" font-size="14.00">R</text>
</g>
<!-- n5 -->
<g id="node6" class="node">
<title>n5</title>
<ellipse fill="#c8e6c9" stroke="black" cx="155" cy="-18" rx="27" ry="18"/>
<text xml:space="preserve" text-anchor="middle" x="155" y="-12.57" font-family="Arial" font-size="14.00">x</text>
</g>
<!-- n4&#45;&gt;n5 -->
<g id="edge3" class="edge">
<title>n4&#45;&gt;n5</title>
<path fill="none" stroke="black" d="M158.21,-88.41C157.63,-75.93 156.84,-58.8 156.19,-44.68"/>
<polygon fill="black" stroke="black" points="158.64,-44.74 155.87,-37.86 153.75,-44.97 158.64,-44.74"/>
<text xml:space="preserve" text-anchor="middle" x="161.48" y="-57.2" font-family="Times,serif" font-size="14.00">L</text>
</g>
<!-- n6 -->
<g id="node7" class="node">
<title>n6</title>
<ellipse fill="#e3f2fd" stroke="black" cx="218" cy="-18" rx="18" ry="18"/>
<text xml:space="preserve" text-anchor="middle" x="218" y="-12.57" font-family="Arial" font-size="14.00">1</text>
</g>
<!-- n4&#45;&gt;n6 -->
<g id="edge4" class="edge">
<title>n4&#45;&gt;n6</title>
<path fill="none" stroke="black" d="M170.66,-88.41C180.06,-74.62 193.35,-55.14 203.46,-40.32"/>
<polygon fill="black" stroke="black" points="205.36,-41.88 207.28,-34.72 201.31,-39.12 205.36,-41.88"/>
<text xml:space="preserve" text-anchor="middle" x="198.28" y="-57.2" font-family="Times,serif" font-size="14.00">R</text>
</g>
</g>
</svg>
